<svg id="Layer_1" data-name="Layer 1" xmlns="http://www.w3.org/2000/svg" viewBox="0 0 72 58"><defs><style>.cls-1{fill:#7d61a5;}</style></defs><title>asset</title><path class="cls-1" d="M30.69,30.31c0-4.4,0-8.8,0-13.2a3.38,3.38,0,0,1,3.56-3.61h3A3.37,3.37,0,0,1,40.74,17q0,13.27,0,26.56a3.37,3.37,0,0,1-3.48,3.53q-1.57,0-3.15,0a3.35,3.35,0,0,1-3.42-3.51C30.68,39.16,30.69,34.74,30.69,30.31Z"/><path class="cls-1" d="M54.18,35.41q0,3.93,0,7.86c0,2.49-1.35,3.83-3.83,3.83-.94,0-1.88,0-2.82,0a3.4,3.4,0,0,1-3.44-3.45q0-8.32,0-16.65a3.39,3.39,0,0,1,3.44-3.43c1,0,2,0,3.07,0a3.39,3.39,0,0,1,3.58,3.61C54.19,29.92,54.18,32.67,54.18,35.41Z"/><path class="cls-1" d="M17.25,38.68c0-1.58,0-3.15,0-4.72a3.36,3.36,0,0,1,3.66-3.65h3a3.32,3.32,0,0,1,3.44,3.32c0,3.38.05,6.76,0,10.14A3.37,3.37,0,0,1,24,47.1c-1,0-2.09,0-3.14,0a3.37,3.37,0,0,1-3.55-3.48C17.22,42,17.25,40.32,17.25,38.68Z"/></svg>