<svg id="Layer_1" data-name="Layer 1" xmlns="http://www.w3.org/2000/svg" viewBox="0 0 72 58"><defs><style>.cls-1{opacity:0.9;}.cls-2{fill:#fff;}</style></defs><title>asset</title><g class="cls-1"><path class="cls-2" d="M45.15,25.27a4.63,4.63,0,0,1,4.47,2.93c.28.62.58.85,1.23.79a10.35,10.35,0,0,1,1.67,0,1.18,1.18,0,0,1,1.27,1.25,1.09,1.09,0,0,1-1.23,1.18c-1.68-.18-2.65.37-3.67,1.88-2,3-6.77,2.31-8.24-1.1a1,1,0,0,0-1.16-.75c-3.93,0-7.86,0-11.78,0H15.92c-.75,0-1.41-.15-1.58-1a1.15,1.15,0,0,1,1-1.41,5.6,5.6,0,0,1,1-.06c7.72,0,15.44,0,23.15,0a1.1,1.1,0,0,0,1.22-.78A4.65,4.65,0,0,1,45.15,25.27Zm-.06,7.45a2.49,2.49,0,0,0,.08-5,2.49,2.49,0,0,0-.08,5Z"/><path class="cls-2" d="M21.39,40.09a2.49,2.49,0,1,0,2.43-2.47A2.51,2.51,0,0,0,21.39,40.09Zm31.38-1.18a1.21,1.21,0,0,1,.12,2.36,4.1,4.1,0,0,1-1,.09H40.78c-3.76,0-7.52,0-11.28,0a1,1,0,0,0-1.12.7,4.64,4.64,0,0,1-4.51,3,4.63,4.63,0,0,1-4.5-3,1,1,0,0,0-1.12-.69c-.84,0-1.67,0-2.51,0s-1.44-.5-1.42-1.28.49-1.17,1.4-1.19,1.84,0,2.76,0a1,1,0,0,0,.76-.51,4.85,4.85,0,0,1,4.6-3.18,4.68,4.68,0,0,1,4.63,3.2c.24.61.64.52,1.06.52H51.76A6.77,6.77,0,0,1,52.77,38.91Z"/><path class="cls-2" d="M31.34,15.4a4.68,4.68,0,0,1,4.5,3,.92.92,0,0,0,1,.68c5,0,9.91,0,14.86,0,.25,0,.51,0,.76,0a1.24,1.24,0,0,1,1.3,1.32c0,.72-.5,1.15-1.36,1.15-2.64,0-5.28,0-7.93,0h0c-2.53,0-5.07,0-7.6,0a.93.93,0,0,0-1,.66A4.66,4.66,0,0,1,31.3,25.3a4.67,4.67,0,0,1-4.51-3,1,1,0,0,0-1.09-.73c-3.17,0-6.34,0-9.52,0a4.63,4.63,0,0,1-.91,0,1.21,1.21,0,0,1-.15-2.32,3.31,3.31,0,0,1,1-.11c3.18,0,6.35,0,9.52,0a1,1,0,0,0,1.18-.73A4.65,4.65,0,0,1,31.34,15.4Zm2.42,5a2.46,2.46,0,1,0-2.4,2.48A2.47,2.47,0,0,0,33.76,20.36Z"/><path class="cls-2" d="M27.71,31.47c3.92,0,7.85,0,11.78,0-3.93,0-7.86,0-11.78,0h0Z"/></g></svg>