<svg id="Layer_1" data-name="Layer 1" xmlns="http://www.w3.org/2000/svg" viewBox="0 0 72 58"><defs><style>.cls-1{fill:#7d61a5;}</style></defs><title>asset</title><path class="cls-1" d="M25.84,37.15a4.68,4.68,0,0,1,4.63,3.2c.24.61.64.52,1.06.52H53.76a6.77,6.77,0,0,1,1,0,1.21,1.21,0,0,1,.12,2.36,4.1,4.1,0,0,1-1,.09H42.78c-3.76,0-7.52,0-11.28,0a1,1,0,0,0-1.12.7,4.64,4.64,0,0,1-4.51,3,4.63,4.63,0,0,1-4.5-3,1,1,0,0,0-1.12-.69c-.84,0-1.67,0-2.51,0s-1.44-.5-1.42-1.28.49-1.18,1.4-1.2,1.84,0,2.76,0a1.08,1.08,0,0,0,.76-.51A4.85,4.85,0,0,1,25.84,37.15Zm-2.45,5a2.49,2.49,0,1,0,2.43-2.48A2.54,2.54,0,0,0,23.39,42.1Z"/><path class="cls-1" d="M33.34,17.4a4.68,4.68,0,0,1,4.5,3,.93.93,0,0,0,1,.68c5,0,9.91,0,14.86,0,.25,0,.51,0,.76,0a1.24,1.24,0,0,1,1.3,1.32,1.18,1.18,0,0,1-1.36,1.15c-2.64,0-5.28,0-7.93,0h0c-2.53,0-5.07,0-7.6,0a.93.93,0,0,0-1,.66,4.9,4.9,0,0,1-9.06.07,1,1,0,0,0-1.09-.73c-3.17,0-6.34,0-9.52,0a4.63,4.63,0,0,1-.91,0,1.21,1.21,0,0,1-.15-2.32,3.31,3.31,0,0,1,1-.11c3.18,0,6.35,0,9.52,0a1.06,1.06,0,0,0,1.18-.74A4.65,4.65,0,0,1,33.34,17.4Zm2.42,5a2.46,2.46,0,1,0-2.4,2.48A2.47,2.47,0,0,0,35.76,22.36Z"/><path class="cls-1" d="M47.09,34.71a2.49,2.49,0,1,0-2.39-2.56A2.47,2.47,0,0,0,47.09,34.71Zm4.53-4.51c.28.62.58.85,1.23.79a11.64,11.64,0,0,1,1.67,0,1.19,1.19,0,0,1,1.27,1.26,1.09,1.09,0,0,1-1.23,1.18c-1.68-.18-2.65.37-3.67,1.88-2,3-6.77,2.31-8.24-1.1a1,1,0,0,0-1.16-.75c-3.93,0-7.86,0-11.78,0H17.92c-.75,0-1.41-.15-1.58-1a1.15,1.15,0,0,1,1-1.41,5.6,5.6,0,0,1,1-.06c7.72,0,15.44,0,23.15,0a1.11,1.11,0,0,0,1.22-.78,4.89,4.89,0,0,1,8.95,0Z"/></svg>