<svg id="Layer_1" data-name="Layer 1" xmlns="http://www.w3.org/2000/svg" viewBox="0 0 72 58"><defs><style>.cls-1{fill:#fff;}</style></defs><title>asset</title><path class="cls-1" d="M16.86,36.57c0-2.25-.13-4.52.06-6.76a5.25,5.25,0,0,1,1.23-3c4.37-4.53,8.86-8.94,13.31-13.38,1.23-1.23,2.37-1.22,3.61,0,4.46,4.44,8.94,8.86,13.31,13.38a4.76,4.76,0,0,1,1.22,2.91c.12,4.61.06,9.22,0,13.83,0,1.78-.77,2.56-2.54,2.57-3.27,0-6.53,0-9.8,0-1,0-1.46-.29-1.43-1.39.08-2.11,0-4.23,0-6.34a2.78,2.78,0,0,0-2.59-3c-1.57,0-2.68,1.21-2.7,3.07,0,2.16,0,4.32,0,6.49,0,.86-.3,1.21-1.17,1.2-3.45,0-6.91,0-10.37,0a2.07,2.07,0,0,1-2.21-2.3C16.84,41.38,16.86,39,16.86,36.57Z"/></svg>