<svg id="Layer_1" data-name="Layer 1" xmlns="http://www.w3.org/2000/svg" viewBox="0 0 72 58"><defs><style>.cls-1{opacity:0.4;}.cls-2{fill:#54327e;}</style></defs><title>asset</title><g class="cls-1"><path class="cls-2" d="M39.83,33.11a5.11,5.11,0,0,1,.47.41,1.56,1.56,0,0,0,1.92.47,3,3,0,0,1,3,.63c2.41,2,4.83,4,7.21,6.06A3.45,3.45,0,0,1,48,46c-2.48-2-4.91-4.07-7.34-6.15a3.11,3.11,0,0,1-1-3.12,1,1,0,0,0-.45-1.13c-.33-.24-.63-.51-.93-.76a11.47,11.47,0,1,1,1.57-1.72Zm-9.36,2.37a9.22,9.22,0,1,0-9.18-9.24A9.28,9.28,0,0,0,30.47,35.48Zm21,7.78a6.38,6.38,0,0,0-.79-1q-3.33-2.83-6.7-5.64a1.19,1.19,0,0,0-1.78,0,1.16,1.16,0,0,0,.29,1.75c1.09.93,2.2,1.85,3.3,2.77L49.26,44a1,1,0,0,0,1.31.21A5.8,5.8,0,0,0,51.42,43.26Z"/></g></svg>